<svg width="148" height="50" viewBox="0 0 148 50" fill="none" xmlns="http://www.w3.org/2000/svg">
<rect x="1.49468" y="1.45391" width="144.706" height="47.4275" rx="10.725" fill="black"/>
<path d="M100.101 24.1873V26.9982H98.3499V28.8416H100.101V35.1051C100.101 37.2439 101.063 38.0994 103.483 38.0994C103.908 38.0994 104.313 38.0484 104.667 37.9873V36.1643C104.364 36.1949 104.171 36.2152 103.837 36.2152C102.754 36.2152 102.278 35.706 102.278 34.545V28.8416H104.667V26.9982H102.278V24.1873H100.101Z" fill="white"/>
<path d="M110.831 38.2521C114.05 38.2521 116.025 36.0828 116.025 32.4877C116.025 28.9129 114.04 26.7334 110.831 26.7334C107.612 26.7334 105.627 28.9129 105.627 32.4877C105.627 36.0828 107.602 38.2521 110.831 38.2521ZM110.831 36.3069C108.938 36.3069 107.875 34.9116 107.875 32.4877C107.875 30.0841 108.938 28.6787 110.831 28.6787C112.714 28.6787 113.787 30.0841 113.787 32.4877C113.787 34.9014 112.714 36.3069 110.831 36.3069Z" fill="white"/>
<path d="M117.714 38.0383H119.89V31.4896C119.89 29.9314 121.055 28.8824 122.705 28.8824C123.09 28.8824 123.737 28.9536 123.92 29.0148V26.8556C123.687 26.7945 123.272 26.764 122.948 26.764C121.51 26.764 120.285 27.5584 119.971 28.6481H119.809V26.9473H117.714V38.0383Z" fill="white"/>
<path d="M129.324 28.5972C130.934 28.5972 131.987 29.7277 132.037 31.4692H126.469C126.591 29.7379 127.715 28.5972 129.324 28.5972ZM132.027 35.044C131.622 35.9097 130.721 36.3884 129.405 36.3884C127.664 36.3884 126.54 35.156 126.469 33.2108V33.0886H134.255V32.3247C134.255 28.8416 132.402 26.7334 129.334 26.7334C126.226 26.7334 124.252 28.9842 124.252 32.5284C124.252 36.0726 126.186 38.2521 129.344 38.2521C131.865 38.2521 133.627 37.03 134.123 35.044H132.027Z" fill="white"/>
<path d="M85.8272 33.9425C85.9951 36.666 88.2512 38.4077 91.609 38.4077C95.1976 38.4077 97.4432 36.5815 97.4432 33.6681C97.4432 31.3774 96.163 30.1107 93.057 29.3824L91.3886 28.9707C89.4159 28.5062 88.6184 27.8834 88.6184 26.7961C88.6184 25.4239 89.8566 24.5266 91.7139 24.5266C93.4767 24.5266 94.6939 25.4028 94.9143 26.8067H97.2018C97.0654 24.2416 94.8199 22.4365 91.7454 22.4365C88.44 22.4365 86.2365 24.2416 86.2365 26.9545C86.2365 29.1923 87.4852 30.5224 90.2239 31.1663L92.1756 31.6413C94.1798 32.1164 95.0612 32.813 95.0612 33.9742C95.0612 35.3254 93.6761 36.3071 91.7873 36.3071C89.7622 36.3071 88.3561 35.3887 88.1567 33.9425H85.8272Z" fill="white"/>
<path d="M63.2795 26.764C61.7811 26.764 60.4853 27.5176 59.8171 28.7805H59.6551V26.9473H57.5594V41.7251H59.7361V36.3578H59.9082C60.4853 37.529 61.7305 38.2216 63.2997 38.2216C66.0838 38.2216 67.8555 36.0115 67.8555 32.4877C67.8555 28.9638 66.0838 26.764 63.2795 26.764ZM62.6619 36.256C60.8396 36.256 59.6956 34.8098 59.6956 32.4979C59.6956 30.1758 60.8396 28.7296 62.672 28.7296C64.5146 28.7296 65.6181 30.1452 65.6181 32.4877C65.6181 34.8403 64.5146 36.256 62.6619 36.256Z" fill="white"/>
<path d="M75.4719 26.764C73.9736 26.764 72.6777 27.5176 72.0095 28.7805H71.8475V26.9473H69.7519V41.7251H71.9285V36.3578H72.1006C72.6777 37.529 73.9229 38.2216 75.4921 38.2216C78.2762 38.2216 80.0479 36.0115 80.0479 32.4877C80.0479 28.9638 78.2762 26.764 75.4719 26.764ZM74.8543 36.256C73.032 36.256 71.888 34.8098 71.888 32.4979C71.888 30.1758 73.032 28.7296 74.8645 28.7296C76.707 28.7296 77.8105 30.1452 77.8105 32.4877C77.8105 34.8403 76.707 36.256 74.8543 36.256Z" fill="white"/>
<path d="M53.6542 38.0383H56.1515L50.6846 22.806H48.1558L42.6888 38.0383H45.1023L46.4979 33.9953H52.2691L53.6542 38.0383ZM49.2995 25.5716H49.4779L51.671 32.0108H47.096L49.2995 25.5716Z" fill="white"/>
<path d="M44.151 11.3166V18.6648H46.7883C48.9649 18.6648 50.2254 17.3153 50.2254 14.9678C50.2254 12.6559 48.9548 11.3166 46.7883 11.3166H44.151ZM45.2849 12.3555H46.6617C48.1753 12.3555 49.0712 13.323 49.0712 14.9831C49.0712 16.6686 48.1904 17.626 46.6617 17.626H45.2849V12.3555Z" fill="white"/>
<path d="M54.0856 18.7717C55.6953 18.7717 56.6824 17.6871 56.6824 15.8895C56.6824 14.1021 55.6902 13.0124 54.0856 13.0124C52.4759 13.0124 51.4838 14.1021 51.4838 15.8895C51.4838 17.6871 52.4708 18.7717 54.0856 18.7717ZM54.0856 17.7991C53.139 17.7991 52.6075 17.1014 52.6075 15.8895C52.6075 14.6877 53.139 13.985 54.0856 13.985C55.0271 13.985 55.5637 14.6877 55.5637 15.8895C55.5637 17.0964 55.0271 17.7991 54.0856 17.7991Z" fill="white"/>
<path d="M65.0883 13.1193H64L63.0179 17.351H62.9319L61.798 13.1193H60.7552L59.6214 17.351H59.5404L58.5533 13.1193H57.4498L58.9684 18.6648H60.0871L61.2209 14.5808H61.307L62.4459 18.6648H63.5747L65.0883 13.1193Z" fill="white"/>
<path d="M66.3416 18.6648H67.4299V15.421C67.4299 14.5553 67.9412 14.0155 68.746 14.0155C69.5509 14.0155 69.9356 14.4586 69.9356 15.3497V18.6648H71.0239V15.0747C71.0239 13.7558 70.3456 13.0124 69.1156 13.0124C68.2854 13.0124 67.7387 13.3841 67.4704 14.0003H67.3894V13.1193H66.3416V18.6648Z" fill="white"/>
<path d="M72.7379 18.6648H73.8262V10.9551H72.7379V18.6648Z" fill="white"/>
<path d="M77.9193 18.7717C79.529 18.7717 80.5161 17.6871 80.5161 15.8895C80.5161 14.1021 79.524 13.0124 77.9193 13.0124C76.3096 13.0124 75.3175 14.1021 75.3175 15.8895C75.3175 17.6871 76.3046 18.7717 77.9193 18.7717ZM77.9193 17.7991C76.9727 17.7991 76.4412 17.1014 76.4412 15.8895C76.4412 14.6877 76.9727 13.985 77.9193 13.985C78.8609 13.985 79.3974 14.6877 79.3974 15.8895C79.3974 17.0964 78.8609 17.7991 77.9193 17.7991Z" fill="white"/>
<path d="M83.7588 17.8347C83.1665 17.8347 82.7363 17.5445 82.7363 17.0454C82.7363 16.5566 83.0805 16.2969 83.8398 16.2459L85.1863 16.1594V16.6228C85.1863 17.3102 84.5788 17.8347 83.7588 17.8347ZM83.4804 18.7564C84.2043 18.7564 84.8066 18.4407 85.1357 17.8857H85.2217V18.6648H86.2695V14.8761C86.2695 13.7049 85.49 13.0124 84.1081 13.0124C82.8578 13.0124 81.9669 13.6234 81.8555 14.5757H82.9084C83.0299 14.1836 83.45 13.9595 84.0575 13.9595C84.8016 13.9595 85.1863 14.2905 85.1863 14.8761V15.3548L83.693 15.4414C82.3819 15.5228 81.6429 16.0983 81.6429 17.0964C81.6429 18.1097 82.4174 18.7564 83.4804 18.7564Z" fill="white"/>
<path d="M89.9627 18.7564C90.722 18.7564 91.3649 18.3949 91.6939 17.7889H91.78V18.6648H92.8227V10.9551H91.7344V14.0003H91.6534C91.3548 13.3892 90.717 13.0276 89.9627 13.0276C88.5707 13.0276 87.6747 14.1377 87.6747 15.8895C87.6747 17.6463 88.5606 18.7564 89.9627 18.7564ZM90.2715 14.0104C91.1827 14.0104 91.7547 14.7386 91.7547 15.8946C91.7547 17.0556 91.1877 17.7736 90.2715 17.7736C89.3502 17.7736 88.7985 17.0658 88.7985 15.8895C88.7985 14.7234 89.3553 14.0104 90.2715 14.0104Z" fill="white"/>
<path d="M99.8801 18.7717C101.49 18.7717 102.477 17.6871 102.477 15.8895C102.477 14.1021 101.485 13.0124 99.8801 13.0124C98.2704 13.0124 97.2783 14.1021 97.2783 15.8895C97.2783 17.6871 98.2654 18.7717 99.8801 18.7717ZM99.8801 17.7991C98.9335 17.7991 98.402 17.1014 98.402 15.8895C98.402 14.6877 98.9335 13.985 99.8801 13.985C100.822 13.985 101.358 14.6877 101.358 15.8895C101.358 17.0964 100.822 17.7991 99.8801 17.7991Z" fill="white"/>
<path d="M103.918 18.6648H105.006V15.421C105.006 14.5553 105.517 14.0155 106.322 14.0155C107.127 14.0155 107.512 14.4586 107.512 15.3497V18.6648H108.6V15.0747C108.6 13.7558 107.922 13.0124 106.692 13.0124C105.861 13.0124 105.315 13.3841 105.046 14.0003H104.965V13.1193H103.918V18.6648Z" fill="white"/>
<path d="M113.612 11.7393V13.1448H112.736V14.0665H113.612V17.1982C113.612 18.2676 114.093 18.6953 115.303 18.6953C115.516 18.6953 115.718 18.6699 115.895 18.6393V17.7278C115.743 17.7431 115.647 17.7533 115.48 17.7533C114.938 17.7533 114.701 17.4986 114.701 16.9181V14.0665H115.895V13.1448H114.701V11.7393H113.612Z" fill="white"/>
<path d="M117.356 18.6648H118.444V15.4261C118.444 14.5859 118.94 14.0206 119.831 14.0206C120.601 14.0206 121.011 14.4687 121.011 15.3548V18.6648H122.099V15.0849C122.099 13.766 121.375 13.0174 120.201 13.0174C119.371 13.0174 118.789 13.3892 118.52 14.0104H118.434V10.9551H117.356V18.6648Z" fill="white"/>
<path d="M126.025 13.9442C126.83 13.9442 127.356 14.5095 127.382 15.3803H124.598C124.658 14.5146 125.22 13.9442 126.025 13.9442ZM127.377 17.1676C127.174 17.6005 126.724 17.8398 126.066 17.8398C125.195 17.8398 124.633 17.2237 124.598 16.251V16.1899H128.49V15.808C128.49 14.0665 127.564 13.0124 126.03 13.0124C124.476 13.0124 123.489 14.1377 123.489 15.9099C123.489 17.682 124.456 18.7717 126.035 18.7717C127.296 18.7717 128.176 18.1606 128.425 17.1676H127.377Z" fill="white"/>
<path d="M30.8787 25.537C30.9051 23.4745 32.0062 21.5229 33.7529 20.4427C32.651 18.8595 30.8053 17.8558 28.8851 17.7953C26.8371 17.5791 24.8516 19.0282 23.8079 19.0282C22.7441 19.0282 21.1372 17.8168 19.4068 17.8526C17.1514 17.9259 15.0488 19.2159 13.9515 21.1995C11.5928 25.3078 13.3522 31.3457 15.6117 34.6665C16.7422 36.2926 18.0634 38.109 19.7921 38.0446C21.4839 37.974 22.1157 36.9594 24.1577 36.9594C26.1808 36.9594 26.7736 38.0446 28.5374 38.0037C30.3527 37.974 31.4964 36.3703 32.5872 34.7288C33.3995 33.5701 34.0245 32.2896 34.4391 30.9345C32.3058 30.0268 30.8812 27.8671 30.8787 25.537Z" fill="white"/>
<path d="M27.5471 15.6114C28.5369 14.4161 29.0245 12.8797 28.9064 11.3286C27.3943 11.4884 25.9975 12.2154 24.9943 13.3649C24.0134 14.4879 23.5029 15.9972 23.5994 17.4891C25.1121 17.5047 26.5992 16.7974 27.5471 15.6114Z" fill="white"/>
<rect x="1.49468" y="1.45391" width="144.706" height="47.4275" rx="10.725" stroke="white" stroke-width="1.65"/>
</svg>
