<svg width="119" height="42" viewBox="0 0 119 42" fill="none" xmlns="http://www.w3.org/2000/svg">
<path fill-rule="evenodd" clip-rule="evenodd" d="M101.137 0C104.651 0 107.717 0.699935 110.334 2.09981C112.951 3.49968 114.966 5.47484 116.38 8.02529C117.793 10.5757 118.5 13.5193 118.5 16.856C118.5 21.6884 117.497 26.0031 115.492 29.8C113.486 33.5969 110.659 36.5501 107.01 38.6595C103.362 40.7688 99.1694 41.8235 94.4322 41.8235C90.994 41.8235 87.9759 41.114 85.3781 39.695C82.7803 38.2759 80.7747 36.272 79.3612 33.6832C78.9512 32.9322 78.6006 32.1498 78.3095 31.3359L76.5359 41.4208H63.8144L64.4189 37.9873C63.4363 38.8193 62.293 39.5323 60.9891 40.1264C58.5059 41.2578 55.5643 41.8235 52.1642 41.8235C47.1979 41.8235 43.2343 40.8264 40.2736 38.832C38.131 37.3888 36.7637 35.4635 36.1716 33.0561C34.433 35.3295 32.2986 37.1972 29.7696 38.6595C26.1212 40.7688 21.9284 41.8235 17.1913 41.8235C13.753 41.8235 10.735 41.114 8.13721 39.695C5.53941 38.2759 3.53376 36.272 2.12026 33.6832C0.706753 31.0944 0 28.1317 0 24.795C0 19.9242 1.00282 15.6191 3.00847 11.8797C5.01412 8.14035 7.82203 5.22555 11.4322 3.13533C15.0424 1.04511 19.1969 0 23.8959 0C27.4105 0 30.4763 0.699935 33.0932 2.09981C35.7101 3.49968 37.7253 5.47484 39.1388 8.02529C39.2616 8.24682 39.379 8.47132 39.4911 8.69879C39.8161 7.86993 40.2301 7.08931 40.732 6.35695C42.1646 4.26673 44.1607 2.68468 46.7203 1.61081C49.2799 0.536937 52.2024 0 55.4879 0C58.4295 0 61.056 0.460232 63.3672 1.38069C65.6785 2.30116 67.4931 3.63391 68.8111 5.37896C69.2215 5.92226 69.5679 6.49624 69.8505 7.10088L70.9774 0.690347H83.699L82.288 8.7149C84.0258 6.45361 86.1542 4.59375 88.6731 3.13533C92.2833 1.04511 96.4379 0 101.137 0ZM40.8512 20.4496L40.8269 20.6694C40.6212 22.3805 40.258 24.0103 39.7373 25.5588H28.0305C28.2806 25.1307 28.5088 24.6811 28.7151 24.2101C29.6112 22.1633 30.0593 19.9479 30.0593 17.5638C30.0593 15.0897 29.3984 13.1667 28.0765 11.7947C26.7547 10.4227 24.8616 9.73669 22.3972 9.73669C20.0672 9.73669 18.0285 10.344 16.281 11.5585C14.5335 12.7731 13.2004 14.4037 12.2819 16.4504C11.3633 18.4972 10.904 20.7126 10.904 23.0967C10.904 25.5708 11.565 27.5051 12.8868 28.8996C14.2086 30.294 16.1465 30.9913 18.7006 30.9913C20.2164 30.9913 21.6043 30.7295 22.8642 30.2059H49.166C49.6027 30.558 50.2323 30.7341 51.0548 30.7341C51.6741 30.7341 52.1901 30.5787 52.6029 30.2678C53.0157 29.957 53.2221 29.508 53.2221 28.9209C53.2221 28.092 52.8179 27.4013 52.0095 26.8487C51.2378 26.3213 50.0194 25.6994 48.3544 24.9831L48.1135 24.8802C46.1526 24.0513 44.5444 23.2569 43.2887 22.4971C42.3931 21.9552 41.5806 21.2727 40.8512 20.4496ZM100.481 9.73669C100.414 9.73669 100.348 9.73718 100.282 9.73817L101.074 9.29406H41.8241C41.8241 9.29406 46.7934 9.31063 52.1694 10.3968C53.7405 10.9057 58.2965 12.4381 60.2039 13.689C63.6931 15.9773 65.9744 19.0969 67.0478 23.0478L68.6487 13.9411H91.8565C91.2756 14.6934 90.7786 15.5298 90.3654 16.4504C89.4468 18.4972 88.9876 20.7126 88.9876 23.0967C88.9876 25.5708 89.6485 27.5051 90.9703 28.8996C92.2921 30.294 94.2301 30.9913 96.7841 30.9913C99.1141 30.9913 101.142 30.3728 102.867 29.1357C104.592 27.8987 105.902 26.2568 106.799 24.2101C107.695 22.1633 108.143 19.9479 108.143 17.5638C108.143 15.0897 107.482 13.1667 106.16 11.7947C104.838 10.4227 102.945 9.73669 100.481 9.73669Z" fill="#E5D4AD"/>
</svg>
