<svg xmlns="http://www.w3.org/2000/svg" viewBox="0 0 375.44 758"><defs><style>.cls-1{fill:#1a1a1a;}.cls-2{fill:#232323;}.cls-3{fill:#1d1d1d;}.cls-4{fill:#3d3d3d;}</style></defs><title>phoneBg</title><g id="Calque_2" data-name="Calque 2"><g id="Calque_1-2" data-name="Calque 1"><rect class="cls-1" x="2.24" width="371.48" height="758" rx="60"/><rect class="cls-2" x="363.55" y="681.96" width="9.5" height="2.38"/><rect class="cls-3" x="363.55" y="77.62" width="9.5" height="2.38"/><rect class="cls-4" x="1.58" y="681.96" width="9.5" height="2.38"/><rect class="cls-4" x="1.58" y="77.62" width="9.5" height="2.38"/><path d="M373.07,195.64h.37a2,2,0,0,1,2,2V247.5a2,2,0,0,1-2,2h-.37Z"/><path d="M2.37,175.84H2a2,2,0,0,0-2,2v32.43a2,2,0,0,0,2,2h.37Z"/><path d="M2.37,140.19H2a2,2,0,0,0-2,2V154a2,2,0,0,0,2,2h.37Z"/><path d="M2.37,232.07H2a2,2,0,0,0-2,2v32.44a2,2,0,0,0,2,2h.37Z"/></g></g></svg>