<svg xmlns="http://www.w3.org/2000/svg" xmlns:xlink="http://www.w3.org/1999/xlink" viewBox="0 0 373.85 758"><defs><style>.cls-1{fill:url(#Dégradé_sans_nom);}.cls-2{fill:#1a1a1a;}.cls-3{fill:#232323;}.cls-4{fill:#1d1d1d;}.cls-5{fill:#171717;}</style><linearGradient id="Dégradé_sans_nom" x1="396.95" y1="432.94" x2="273.39" y2="401.26" gradientTransform="matrix(1, 0, 0, -1, 0, 757.89)" gradientUnits="userSpaceOnUse"><stop offset="0.01" stop-color="#555"/><stop offset="1" stop-color="#111"/></linearGradient></defs><title>Fichier 2</title><g id="Calque_2" data-name="Calque 2"><g id="Calque_1-2" data-name="Calque 1"><rect class="cls-1" x="0.79" width="370.7" height="758" rx="60"/><rect class="cls-2" width="371.48" height="758" rx="60"/><rect class="cls-3" x="361.97" y="681.96" width="9.5" height="2.38"/><rect class="cls-4" x="361.97" y="77.62" width="9.5" height="2.38"/><rect x="9.5" y="12.67" width="352.47" height="733.45" rx="50"/><path d="M94.64,12.67h182.2v.89a30,30,0,0,1-30,30H124.64a30,30,0,0,1-30-30Z"/><ellipse class="cls-5" cx="152.61" cy="28.12" rx="5.92" ry="5.94"/><ellipse class="cls-5" cx="244.89" cy="28.12" rx="5.92" ry="5.94"/><ellipse class="cls-5" cx="126.58" cy="28.12" rx="5.92" ry="5.94"/><path d="M371.49,195.64h.36a2,2,0,0,1,2,2V247.5a2,2,0,0,1-2,2h-.36Z"/></g></g></svg>